<?xml version="1.0" encoding="UTF-8" standalone="no"?>
<!DOCTYPE svg PUBLIC "-//W3C//DTD SVG 1.1//EN" "http://www.w3.org/Graphics/SVG/1.1/DTD/svg11.dtd">
<svg width="100%" height="100%" viewBox="0 0 691 408" version="1.1" xmlns="http://www.w3.org/2000/svg" xmlns:xlink="http://www.w3.org/1999/xlink" xml:space="preserve" xmlns:serif="http://www.serif.com/" style="fill-rule:evenodd;clip-rule:evenodd;stroke-linejoin:round;stroke-miterlimit:2;">
    <g transform="matrix(-1,0,0,1,1427,-217)">
        <path d="M1285.5,361.6C1260.8,361.6 1237.8,368.7 1218.4,381.1L1174.5,322.8L1180.3,302.2C1207.8,299.8 1223,289.4 1222.1,279.3C1221.2,269.5 1193.9,276.8 1163.5,277.2C1155.2,277.3 1111,277.2 1111.3,285.2C1111.6,293.5 1139.8,300.3 1159.6,302.2L1156.1,314.8L977.8,314.8C981.6,302.4 985.1,291 987.8,282.1C990.1,274.5 991.8,268.8 992.7,266L979.7,256.1L985.8,249.9L1033.6,249.9L1033.6,234.1L979.3,234.1L956,257.7L970.9,269.1C964,292 947.6,345.9 937,378.3C918.6,367.7 897.3,361.6 874.5,361.6C805.3,361.6 749.3,417.7 749.3,486.8C749.3,555.9 805.4,612 874.5,612C943.7,612 999.7,555.9 999.7,486.8C999.7,447.9 981.9,413.1 954.1,390.2C955.4,386.3 956.8,382 958.3,377.4L1093,524L1093,525.2C1093,533.1 1099.3,539.6 1107.2,539.9L1116.6,575.8L1107,575.8L1107,585.2L1137.4,585.2L1137.4,575.8L1125.3,575.8L1115.3,537.8C1117.3,536.6 1119.1,534.8 1120.3,532.8L1165.7,523C1181.2,574.6 1229,612.2 1285.6,612.2C1342.2,612.2 1410.8,556.1 1410.8,487C1410.8,417.8 1354.7,361.8 1285.6,361.8L1285.5,361.6ZM976.1,486.8C976.1,542.9 930.6,588.4 874.5,588.4C818.4,588.4 772.9,542.9 772.9,486.8C772.9,430.7 818.4,385.2 874.5,385.2C894.4,385.2 913,391 928.7,400.9C916.2,428 891.9,457.1 874.4,473.5C867.1,473.5 861.2,479.5 861.2,486.8C861.2,494.1 867.1,500.1 874.5,500.1C881.9,500.1 886.8,495 887.7,488.5C896.3,480.5 907.5,468.6 918.5,454.5C926.7,444 937,429.4 944.8,413.6C964.1,432.1 976.1,458.1 976.1,486.9L976.1,486.8ZM1104.8,498L1098.6,474.6L1108.2,474.6L1108.2,465.2L1077.8,465.2L1077.8,474.6L1089.9,474.6L1096,497.9L965.1,355.4C967.2,348.6 969.4,341.6 971.6,334.7L1150.5,334.7L1104.8,498.1L1104.8,498ZM1161.4,503.3L1121.7,511.9L1167.8,346.9L1202.5,393.1C1176.6,416 1160.3,449.5 1160.3,486.8C1160.3,492.4 1160.7,497.9 1161.4,503.3ZM1184,486.8C1184,457.2 1196.7,430.6 1216.8,412L1268.2,480.3L1184.6,498.3C1184.2,494.5 1183.9,490.7 1183.9,486.8L1184,486.8ZM1285.5,588.4C1240.2,588.4 1201.9,558.8 1188.7,517.9L1279,498.4C1280.9,499.5 1283.1,500.1 1285.4,500.1C1292.7,500.1 1298.7,494.2 1298.7,486.8C1298.7,480.4 1294.2,475.1 1288.2,473.8L1232.7,400C1248.1,390.6 1266.2,385.2 1285.5,385.2C1341.6,385.2 1387.1,430.7 1387.1,486.8C1387.1,542.9 1341.6,588.4 1285.5,588.4Z" style="fill:rgb(160,160,160);fill-rule:nonzero;"/>
    </g>
</svg>
