<?xml version="1.0" encoding="UTF-8" standalone="no"?>
<!DOCTYPE svg PUBLIC "-//W3C//DTD SVG 1.1//EN" "http://www.w3.org/Graphics/SVG/1.1/DTD/svg11.dtd">
<svg width="100%" height="100%" viewBox="0 0 674 1195" version="1.1" xmlns="http://www.w3.org/2000/svg" xmlns:xlink="http://www.w3.org/1999/xlink" xml:space="preserve" xmlns:serif="http://www.serif.com/" style="fill-rule:evenodd;clip-rule:evenodd;stroke-linejoin:round;stroke-miterlimit:2;">
    <g transform="matrix(1,0,0,1,-312,-1200)">
        <path d="M591.2,1242C636.5,1242 673.5,1279 673.5,1324.3C673.5,1369.6 636.5,1406.6 591.2,1406.6C545.9,1406.6 508.9,1369.6 508.9,1324.3C508.9,1279 545.9,1242 591.2,1242Z" style="fill:rgb(160,160,160);"/>
        <path d="M342,1761.1L514.7,1646C522.7,1612.3 555.8,1462.5 622.2,1427.8C688,1384.3 930.6,1563 932,1564.5L932,1825.2L879.4,1816.1L858.8,1608C839,1604 819.2,1600 799.3,1596C842.6,1707.9 858.5,1815.8 833.6,1886.9L938.8,2316.8L867.9,2367.1L714.7,1969.2L643.8,2044.7L545.5,2344.2L451.8,2309.9L536.4,1994.3L634.7,1818.2L597,1688.3L557,1740.5L369.5,1802.2L342.1,1761L342,1761.1Z" style="fill:rgb(160,160,160);"/>
    </g>
</svg>
